<?xml version="1.0" encoding="utf-8"?>
<!-- Generator: Adobe Illustrator 16.0.0, SVG Export Plug-In . SVG Version: 6.00 Build 0)  -->
<!DOCTYPE svg PUBLIC "-//W3C//DTD SVG 1.1//EN" "http://www.w3.org/Graphics/SVG/1.1/DTD/svg11.dtd">
<svg version="1.1" xmlns="http://www.w3.org/2000/svg" xmlns:xlink="http://www.w3.org/1999/xlink" x="0px" y="0px"
	 width="219.333px" height="150.667px" viewBox="23.5 41.916 219.333 150.667" enable-background="new 23.5 41.916 219.333 150.667"
	 xml:space="preserve">
<g id="win">
	<g>
		<g>
			<rect x="91.389" y="126.469" fill="#242525" width="11.829" height="16.285"/>
		</g>
		<g>
			<polyline fill="#242525" points="118.48,126.469 120.964,126.469 120.964,142.753 109.135,142.753 109.135,126.469 
				118.002,126.469 			"/>
		</g>
		<g>
			<rect x="91.264" y="147.09" fill="#242525" width="11.829" height="16.285"/>
		</g>
		<g>
			<rect x="109.224" y="147.09" fill="#242525" width="11.829" height="16.285"/>
		</g>
	</g>
	<g>
		<g>
			<rect x="147.165" y="125.51" fill="#242525" width="11.829" height="16.284"/>
		</g>
		<g>
			<rect x="165.125" y="125.51" fill="#242525" width="11.829" height="16.284"/>
		</g>
		<g>
			<rect x="147.04" y="147.131" fill="#242525" width="11.828" height="16.285"/>
		</g>
		<g>
			<rect x="165" y="147.131" fill="#242525" width="11.829" height="16.285"/>
		</g>
	</g>
</g>
<g id="M">
	<g>
		<g id="Layer_1_copy">
			<g>
				<path fill="#EF5F26" d="M155.847,51.223l-25.595,40.834c0.02,0.114,0.024,0.229,0.039,0.344c2.024,1.23,3.978,2.588,5.838,4
					c1.446,1.098,2.868,2.199,4.254,3.327l22.434-37.009L155.847,51.223z"/>
			</g>
			<g>
				<polygon fill="#EF5F26" points="156.031,50.378 226.95,169.709 220,185.333 149.258,62.199 				"/>
			</g>
			<g>
				<g>
					<path fill="#EF5F26" d="M106.672,68.666c0.098-0.06,0.197-0.108,0.296-0.161l2.969-4.994l-6.146-12.56l-72.388,119.12
						L39,182.833L100.326,79.68c-0.095-2.273,0.979-4.604,3.226-5.426l0.494-0.832C104.091,71.524,105.126,69.612,106.672,68.666z"
						/>
				</g>
				<g>
					<path fill="#EF5F26" d="M104.667,52.121l-6.971,11.497l7.09,11.693c0.051-0.015,0.107-0.021,0.16-0.034
						c-0.226-2.108,0.87-4.382,2.604-5.442c2.606-1.594,5.553-0.486,7.174,1.964c0.071,0.107,0.939,1.319,0.272,0.434
						c0.309,0.411,0.616,0.822,0.923,1.234c0.684,0.922,1.419,1.845,1.998,2.847c0.886,1.535,1.555,3.192,1.835,4.939
						c3.988,1.161,6.468,4.637,9.094,7.774c0.822,0.982,1.308,2.166,1.443,3.369c0.729,0.444,1.456,0.902,2.167,1.377
						L104.667,52.121z"/>
				</g>
			</g>
			<g display="none">
				<rect x="92.451" y="128.081" display="inline" fill="#EF5F26" width="14.322" height="18.891"/>
				<polyline display="inline" fill="#EF5F26" points="119.164,128.081 122.172,128.081 122.172,146.972 107.848,146.972 
					107.848,128.081 118.586,128.081 				"/>
				<rect x="92.299" y="149.641" display="inline" fill="#EF5F26" width="14.325" height="18.891"/>
				<rect x="108.275" y="149.641" display="inline" fill="#EF5F26" width="14.325" height="18.891"/>
				<rect x="143.715" y="128.128" display="inline" fill="#00AFEE" width="14.325" height="18.892"/>
				<rect x="159.691" y="128.128" display="inline" fill="#00AFEE" width="14.325" height="18.892"/>
				<rect x="143.564" y="149.689" display="inline" fill="#00AFEE" width="14.324" height="18.892"/>
				<rect x="159.539" y="149.689" display="inline" fill="#00AFEE" width="14.323" height="18.892"/>
			</g>
		</g>
		<g>
			<path fill="#EF5F26" d="M136.407,108.29c1.912,1.431,3.285,2.809,4.438,4.465l30.979-51.103l-7.098-11.705l-33.984,54.222
				C132.51,105.114,134.788,107.079,136.407,108.29z"/>
		</g>
		<g>
			<polygon fill="#EF5F26" points="162.933,46.6 235.139,168.098 227.75,183.083 156.036,58.636 			"/>
		</g>
		<g>
			<g>
				<polygon fill="#EF5F26" points="118.88,63.649 46.655,185.135 38.92,172.143 112.62,50.861 				"/>
			</g>
			<g>
				<path fill="#EF5F26" d="M142.502,110.606c2.293-3.797,3.586-5.568,4.563-8.113L112.62,50.861l-7.098,11.706l32.729,53.989
					C139.67,114.639,141.14,112.864,142.502,110.606z"/>
			</g>
		</g>
		<polygon fill="#EF5F26" points="103.825,50.902 109.041,58.252 103.564,69.259 98.347,61.91 		"/>
		<polygon fill="#EF5F26" points="142.334,105.916 133.328,119.855 103.918,76.568 113.784,69.864 		"/>
		<polygon fill="#EF5F26" points="135.875,124.333 128.5,111.958 158.212,70.491 164.683,74.282 		"/>
	</g>
</g>
</svg>
