<?xml version="1.0" encoding="utf-8"?>
<!-- Generator: Adobe Illustrator 16.0.0, SVG Export Plug-In . SVG Version: 6.00 Build 0)  -->
<!DOCTYPE svg PUBLIC "-//W3C//DTD SVG 1.1//EN" "http://www.w3.org/Graphics/SVG/1.1/DTD/svg11.dtd">
<svg version="1.1" xmlns="http://www.w3.org/2000/svg" xmlns:xlink="http://www.w3.org/1999/xlink" x="0px" y="0px" width="612px"
	 height="792px" viewBox="0 0 612 792" enable-background="new 0 0 612 792" xml:space="preserve">
<g id="Layer_1" focusable="false">
	<path fill="#00AEFF" d="M612,300.376c0,116.187-94.188,210.374-210.375,210.374c-13.412,0-26.524-1.27-39.239-3.668l-28.701,32.29
		c-5.444,6.124-13.248,9.628-21.442,9.628H267.75v47.813c0,15.844-12.844,28.688-28.688,28.688H191.25v47.813
		c0,15.844-12.844,28.688-28.688,28.688H28.688C12.844,702,0,689.156,0,673.313v-93.305c0-7.608,3.022-14.906,8.401-20.286
		l193.404-193.404c-6.841-20.743-10.556-42.908-10.556-65.943c0-116.187,94.187-210.374,210.373-210.375
		C518.154,89.999,612,183.845,612,300.376z M401.625,243c0,31.688,25.687,57.375,57.375,57.375
		c31.688,0,57.375-25.688,57.375-57.375S490.688,185.625,459,185.625C427.312,185.625,401.625,211.313,401.625,243z"/>
</g>
<g id="Layer_2" display="none">
	
		<circle display="inline" fill="none" stroke="#FFFFFF" stroke-width="30" stroke-miterlimit="10" cx="414.5" cy="277.833" r="244.667"/>
</g>
<g id="Layer_3">
	
		<rect x="101.244" y="406.321" transform="matrix(0.7071 0.7071 -0.7071 0.7071 413.2052 73.8456)" fill="#FFFFFF" width="32.439" height="258.769"/>
	<ellipse fill="#FFFFFF" cx="28.885" cy="624.438" rx="16.635" ry="16.437"/>
	<ellipse fill="#FFFFFF" cx="211.865" cy="441.719" rx="16.635" ry="17.674"/>
</g>
</svg>
