<?xml version="1.0" encoding="utf-8"?>
<!-- Generator: Adobe Illustrator 16.0.0, SVG Export Plug-In . SVG Version: 6.00 Build 0)  -->
<!DOCTYPE svg PUBLIC "-//W3C//DTD SVG 1.1//EN" "http://www.w3.org/Graphics/SVG/1.1/DTD/svg11.dtd">
<svg version="1.1" id="Layer_1" xmlns="http://www.w3.org/2000/svg" xmlns:xlink="http://www.w3.org/1999/xlink" x="0px" y="0px"
	 width="658px" height="227px" viewBox="10.5 40.583 658 227" enable-background="new 10.5 40.583 658 227" xml:space="preserve">
<g id="win">
	<g>
		<g>
			<rect x="91.389" y="126.469" fill="#E5E4E3" width="11.829" height="16.285"/>
		</g>
		<g>
			<polyline fill="#E5E4E3" points="118.48,126.469 120.964,126.469 120.964,142.753 109.135,142.753 109.135,126.469 
				118.002,126.469 			"/>
		</g>
		<g>
			<rect x="91.264" y="147.09" fill="#E5E4E3" width="11.829" height="16.285"/>
		</g>
		<g>
			<rect x="109.224" y="147.09" fill="#E5E4E3" width="11.829" height="16.285"/>
		</g>
	</g>
	<g>
		<g>
			<rect x="147.165" y="125.51" fill="#E5E4E3" width="11.829" height="16.284"/>
		</g>
		<g>
			<rect x="165.125" y="125.51" fill="#E5E4E3" width="11.829" height="16.284"/>
		</g>
		<g>
			<rect x="147.04" y="147.131" fill="#E5E4E3" width="11.828" height="16.285"/>
		</g>
		<g>
			<rect x="165" y="147.131" fill="#E5E4E3" width="11.829" height="16.285"/>
		</g>
	</g>
</g>
<g id="text">
	<g id="Layer_3">
		<g>
			<path fill="#EF5F26" d="M325.433,155.54h-44.88l-10.71,27.029h-21.76L302.99,50.65l54.739,131.918h-21.59L325.433,155.54z
				 M318.289,137.859l-15.3-38.419l-15.3,38.419H318.289z"/>
			<path fill="#EF5F26" d="M453.44,145.169c0,6.291-1.36,11.9-4.08,17c-2.72,4.763-6.63,8.84-11.56,12.07
				c-8.67,5.44-20.4,8.33-34.683,8.33H391.9h-16.66V56.43h19.723h8.157c13.939,0,24.143,2.55,31.279,7.82
				c3.91,2.89,6.8,6.63,8.67,10.88c1.7,3.91,2.55,8.33,2.55,13.26c0,6.8-2.21,15.13-9.856,23.12c2.04,1.36,3.91,2.89,5.777,4.59
				c3.739,3.74,6.633,7.82,8.673,12.41C452.421,133.609,453.44,139.219,453.44,145.169z M394.961,74.11v38.25
				c3.907-0.85,8.5-2.21,12.92-4.08c6.29-2.55,11.22-5.44,14.62-8.84c3.566-3.4,5.27-6.97,5.27-11.05c0-6.12-2.21-8.5-4.08-9.86
				c-4.76-3.57-13.938-4.42-20.569-4.42H394.961z M435.761,145.169c0-6.63-2.21-11.9-6.63-16.15c-2.553-2.55-5.78-4.59-9.69-6.29
				c-1.699,0.68-3.399,1.53-5.27,2.21c-6.973,2.89-13.939,4.59-19.21,5.78v34h8.157c10.71,0,19.382-1.87,24.989-5.44
				C433.381,155.879,435.761,151.459,435.761,145.169z"/>
			<path fill="#EF5F26" d="M494.921,107.77h46.066v17.85h-46.066v39.099h55.93v17.851H494.75h-19.552V56.43h19.552h56.101v17.68
				h-55.93V107.77L494.921,107.77z"/>
			<path fill="#EF5F26" d="M646.558,182.569h-52.869h-19.55V56.43h19.72v108.289h52.699V182.569L646.558,182.569z"/>
		</g>
		<g>
			<path fill="#00AEFF" d="M54.829,244.997H35.525l-4.604,10.334h-9.36l23.618-50.439l23.545,50.439h-9.287L54.829,244.997z
				 M51.758,238.236l-6.581-14.69l-6.581,14.69H51.758z"/>
			<path fill="#00AEFF" d="M116.253,231.215c0,6.826-2.27,12.676-6.581,16.9c-2.34,2.34-5.265,4.158-8.701,5.328
				c-3.51,1.234-7.458,1.887-11.845,1.887H79.108h-2.852V207.1h8.479h4.391c4.387,0,8.335,0.585,11.845,1.885
				c3.438,1.17,6.361,2.99,8.701,5.33C113.986,218.54,116.253,224.39,116.253,231.215z M107.771,231.215
				c0-4.939-1.536-9.035-4.387-11.83c-3.217-3.186-7.97-4.745-14.258-4.745h-4.391v33.151h4.391c6.288,0,11.041-1.625,14.258-4.746
				C106.236,240.25,107.771,236.09,107.771,231.215z"/>
			<path fill="#00AEFF" d="M168.099,255.333v-25.609l-16.964,22.488l-17.037-22.488v25.609h-8.479V204.89l25.519,33.801
				l25.519-33.801v50.442H168.099L168.099,255.333z"/>
			<path fill="#00AEFF" d="M187.992,255.333V207.1h8.479v48.232H187.992L187.992,255.333z"/>
			<path fill="#00AEFF" d="M216.218,224.325v31.006h-8.482v-50.506l34.074,33.215V207.1h8.558v50.441L216.218,224.325z"/>
			<path fill="#00AEFF" d="M261.702,255.333V207.1h8.479v48.232H261.702L261.702,255.333z"/>
			<path fill="#00AEFF" d="M309.889,245.646c-1.536,4.681-6.288,8.386-12.211,9.427c-1.097,0.194-2.194,0.26-3.291,0.26
				c-2.193,0-4.387-0.326-6.435-1.041c-3.438-1.232-6.438-3.25-8.994-6.174l6.727-4.681c1.536,1.819,3.363,3.12,5.338,3.771
				c1.608,0.584,3.363,0.715,4.975,0.392c2.775-0.455,5.045-2.08,5.7-4.03c0.731-2.21-0.951-4.158-2.483-5.46
				c-2.413-2.017-6.361-5.46-6.654-5.72l-6.651-5.592c-2.05-1.756-3.438-3.705-4.167-5.783c-0.731-2.018-0.808-4.16-0.146-6.11
				c0.658-2.077,2.047-3.897,4.021-5.396c1.825-1.363,4.095-2.34,6.508-2.729c2.632-0.521,5.411-0.323,8.042,0.521
				c2.777,0.976,5.266,2.601,7.386,4.875l-6.654,4.744c-2.778-2.99-5.63-2.99-7.166-2.729c-1.898,0.325-3.51,1.432-3.945,2.795
				c-0.292,0.91-0.222,2.405,2.047,4.354l9.064,7.736c1.316,1.17,2.925,2.533,4.095,3.51c2.342,1.885,3.948,4.028,4.753,6.306
				C310.547,241.096,310.618,243.436,309.889,245.646z"/>
			<path fill="#00AEFF" d="M352.889,213.86h-14.917v41.473h-8.555V213.86H314.5v-6.76h38.389V213.86z"/>
			<path fill="#00AEFF" d="M398.662,255.333h-9.575l-13.677-16.313h-6.215v16.313h-8.479V207.1h7.166h8.921
				c7.165,0,11.333,2.6,13.524,4.811c2.854,2.795,4.39,6.694,4.39,11.18c0,4.42-1.535,8.32-4.39,11.115
				c-1.313,1.301-3.361,2.795-6.289,3.705L398.662,255.333z M376.803,232.256c3.51,0,6.142-0.91,7.823-2.6
				c2.048-1.951,2.41-4.683,2.41-6.566c0-1.949-0.362-4.68-2.41-6.629c-1.685-1.69-4.313-2.535-7.823-2.535h-7.604v18.33H376.803
				L376.803,232.256z"/>
			<path fill="#00AEFF" d="M435.887,244.997H416.58l-4.604,10.334h-9.359l23.618-50.439l23.544,50.439h-9.286L435.887,244.997z
				 M432.815,238.236l-6.58-14.69l-6.581,14.69H432.815z"/>
			<path fill="#00AEFF" d="M497.312,231.215c0,6.826-2.267,12.676-6.581,16.9c-2.34,2.34-5.265,4.158-8.701,5.328
				c-3.51,1.234-7.458,1.887-11.846,1.887h-10.018h-2.854V207.1h8.482h4.387c4.388,0,8.336,0.585,11.846,1.885
				c3.438,1.17,6.361,2.99,8.701,5.33C495.045,218.54,497.312,224.39,497.312,231.215z M488.826,231.215
				c0-4.939-1.532-9.035-4.387-11.83c-3.218-3.186-7.971-4.745-14.259-4.745h-4.387v33.151h4.387c6.288,0,11.041-1.625,14.259-4.746
				C487.294,240.25,488.826,236.09,488.826,231.215z"/>
			<path fill="#00AEFF" d="M521.225,253.446c-3.29-1.234-6.146-2.99-8.628-5.199c-2.486-2.211-4.461-4.746-5.853-7.67
				c-1.39-2.926-2.119-6.111-2.119-9.361s0.729-6.436,2.119-9.424c1.392-2.858,3.363-5.396,5.853-7.67
				c2.482-2.211,5.338-3.898,8.628-5.136c3.29-1.235,6.873-1.885,10.529-1.885c3.653,0,7.236,0.649,10.603,1.885
				c3.217,1.235,6.068,2.925,8.628,5.136c2.486,2.274,4.388,4.812,5.776,7.67c1.39,2.99,2.121,6.174,2.121,9.424
				s-0.731,6.438-2.121,9.361c-1.392,2.924-3.29,5.459-5.776,7.67c-2.56,2.209-5.411,3.965-8.628,5.199
				c-3.363,1.235-6.946,1.885-10.603,1.885C528.097,255.331,524.515,254.682,521.225,253.446z M518.592,219.515
				c-3.513,3.12-5.483,7.28-5.483,11.7s1.974,8.58,5.483,11.701c3.509,3.119,8.188,4.875,13.162,4.875
				c4.972,0,9.648-1.756,13.158-4.875c3.513-3.121,5.484-7.281,5.484-11.701s-1.975-8.58-5.484-11.7
				c-3.509-3.12-8.188-4.875-13.158-4.875C526.781,214.64,522.102,216.395,518.592,219.515z"/>
			<path fill="#00AEFF" d="M606.411,255.333h-9.575l-13.677-16.313h-6.215v16.313h-8.479V207.1h7.166h8.921
				c7.166,0,11.333,2.6,13.524,4.811c2.854,2.795,4.39,6.694,4.39,11.18c0,4.42-1.535,8.32-4.39,11.115
				c-1.313,1.301-3.361,2.795-6.289,3.705L606.411,255.333z M584.552,232.256c3.51,0,6.142-0.91,7.823-2.6
				c2.048-1.951,2.41-4.683,2.41-6.566c0-1.949-0.362-4.68-2.41-6.629c-1.685-1.69-4.313-2.535-7.823-2.535h-7.604v18.33H584.552
				L584.552,232.256z"/>
			<path fill="#00AEFF" d="M643.636,244.997h-19.307l-4.604,10.334h-9.359l23.617-50.439l23.545,50.439h-9.286L643.636,244.997z
				 M640.564,238.236l-6.581-14.69l-6.58,14.69H640.564z"/>
		</g>
	</g>
</g>
<g id="M">
	<g>
		<g id="Layer_1_copy">
			<g>
				<path fill="#EF5F26" d="M155.847,51.223l-25.595,40.834c0.02,0.114,0.023,0.229,0.039,0.344c2.023,1.23,3.978,2.588,5.838,4
					c1.446,1.098,2.868,2.199,4.254,3.327l22.434-37.009L155.847,51.223z"/>
			</g>
			<g>
				<polygon fill="#EF5F26" points="156.031,50.378 226.95,169.709 220,185.333 149.258,62.199 				"/>
			</g>
			<g>
				<g>
					<path fill="#EF5F26" d="M106.672,68.666c0.098-0.06,0.197-0.108,0.296-0.161l2.969-4.994l-6.146-12.56l-72.389,119.12
						L39,182.833L100.326,79.68c-0.096-2.273,0.979-4.604,3.226-5.426l0.494-0.832C104.091,71.524,105.126,69.612,106.672,68.666z"
						/>
				</g>
				<g>
					<path fill="#EF5F26" d="M104.667,52.121l-6.972,11.497l7.091,11.693c0.051-0.015,0.106-0.021,0.159-0.034
						c-0.226-2.108,0.87-4.382,2.604-5.442c2.605-1.594,5.553-0.486,7.174,1.964c0.071,0.107,0.939,1.319,0.272,0.434
						c0.309,0.411,0.615,0.822,0.923,1.234c0.684,0.922,1.419,1.845,1.998,2.847c0.886,1.535,1.555,3.192,1.835,4.939
						c3.987,1.161,6.468,4.637,9.094,7.774c0.822,0.982,1.308,2.166,1.443,3.369c0.729,0.444,1.456,0.902,2.167,1.377
						L104.667,52.121z"/>
				</g>
			</g>
			<g display="none">
				<rect x="92.451" y="128.081" display="inline" fill="#EF5F26" width="14.321" height="18.891"/>
				<polyline display="inline" fill="#EF5F26" points="119.164,128.081 122.172,128.081 122.172,146.972 107.848,146.972 
					107.848,128.081 118.586,128.081 				"/>
				<rect x="92.299" y="149.641" display="inline" fill="#EF5F26" width="14.325" height="18.891"/>
				<rect x="108.275" y="149.641" display="inline" fill="#EF5F26" width="14.325" height="18.891"/>
				<rect x="143.715" y="128.128" display="inline" fill="#00AFEE" width="14.325" height="18.892"/>
				<rect x="159.691" y="128.128" display="inline" fill="#00AFEE" width="14.325" height="18.892"/>
				<rect x="143.564" y="149.689" display="inline" fill="#00AFEE" width="14.324" height="18.892"/>
				<rect x="159.539" y="149.689" display="inline" fill="#00AFEE" width="14.322" height="18.892"/>
			</g>
		</g>
		<g>
			<path fill="#EF5F26" d="M136.407,108.29c1.911,1.431,3.284,2.809,4.438,4.465l30.979-51.103l-7.099-11.705l-33.983,54.222
				C132.51,105.114,134.788,107.079,136.407,108.29z"/>
		</g>
		<g>
			<polygon fill="#EF5F26" points="162.933,46.6 235.139,168.098 227.75,183.083 156.036,58.636 			"/>
		</g>
		<g>
			<g>
				<polygon fill="#EF5F26" points="118.88,63.649 46.655,185.135 38.92,172.143 112.62,50.861 				"/>
			</g>
			<g>
				<path fill="#EF5F26" d="M142.502,110.606c2.293-3.797,3.586-5.568,4.563-8.113L112.62,50.861l-7.099,11.706l32.729,53.989
					C139.67,114.639,141.14,112.864,142.502,110.606z"/>
			</g>
		</g>
		<polygon fill="#EF5F26" points="103.825,50.902 109.041,58.252 103.564,69.259 98.347,61.91 		"/>
		<polygon fill="#EF5F26" points="142.334,105.916 133.328,119.855 103.918,76.568 113.784,69.864 		"/>
		<polygon fill="#EF5F26" points="135.875,124.333 128.5,111.958 158.212,70.491 164.683,74.282 		"/>
	</g>
</g>
</svg>
