<?xml version="1.0" encoding="utf-8"?>
<!-- Generator: Adobe Illustrator 16.0.0, SVG Export Plug-In . SVG Version: 6.00 Build 0)  -->
<!DOCTYPE svg PUBLIC "-//W3C//DTD SVG 1.1//EN" "http://www.w3.org/Graphics/SVG/1.1/DTD/svg11.dtd">
<svg version="1.1" xmlns="http://www.w3.org/2000/svg" xmlns:xlink="http://www.w3.org/1999/xlink" x="0px" y="0px" width="690px"
	 height="292.165px" viewBox="0 0 690 292.165" enable-background="new 0 0 690 292.165" xml:space="preserve">
<g id="Layer_1" display="none">
	
		<image display="inline" overflow="visible" width="93" height="29" xlink:href="4006DB1A.png"  transform="matrix(0.7579 0 0 0.7579 312.333 281.6646)">
	</image>
	
		<rect x="147.895" y="133.671" transform="matrix(0.7071 -0.7071 0.7071 0.7071 -29.0636 216.4222)" display="inline" fill="#EF5F26" width="197.635" height="19.247"/>
	
		<rect x="274.864" y="134.245" transform="matrix(-0.7071 -0.7071 0.7071 -0.7071 536.1831 509.8317)" display="inline" fill="#EF5F26" width="197.635" height="19.247"/>
	<g display="inline">
		
			<rect x="54.895" y="129.671" transform="matrix(0.7071 -0.7071 0.7071 0.7071 -53.4742 149.4897)" fill="#00AFEE" width="197.635" height="19.247"/>
		
			<rect x="181.864" y="130.245" transform="matrix(-0.7071 -0.7071 0.7071 -0.7071 380.2512 437.2424)" fill="#00AFEE" width="197.635" height="19.247"/>
	</g>
	<g display="inline">
		
			<rect x="178.265" y="121.682" transform="matrix(0.7071 0.7071 -0.7071 0.7071 196.9938 -101.9664)" fill="#FFFFFF" width="86.633" height="130.255"/>
		
			<rect x="232.334" y="130.827" transform="matrix(0.7071 0.7071 -0.7071 0.7071 224.3299 -149.6663)" fill="#FFFFFF" width="120.985" height="130.255"/>
		<rect x="178.202" y="138.664" fill="#EF5F26" width="29.333" height="29.333"/>
		<rect x="210.915" y="138.664" fill="#EF5F26" width="29.333" height="29.333"/>
		<rect x="177.892" y="172.142" fill="#EF5F26" width="29.333" height="29.333"/>
		<rect x="210.605" y="172.142" fill="#EF5F26" width="29.333" height="29.333"/>
		<rect x="281.465" y="140.737" fill="#00AFEE" width="29.333" height="29.333"/>
		<rect x="314.178" y="140.737" fill="#00AFEE" width="29.333" height="29.333"/>
		<rect x="281.155" y="174.215" fill="#00AFEE" width="29.333" height="29.333"/>
		<rect x="313.868" y="174.215" fill="#00AFEE" width="29.333" height="29.333"/>
	</g>
</g>
<g id="Layer_1_copy">
	<g>
		<path fill="#EF5F26" d="M155.847,51.223l-25.595,40.834c0.02,0.114,0.026,0.229,0.039,0.344c2.026,1.23,3.978,2.588,5.838,4
			c1.446,1.098,2.868,2.199,4.254,3.327l22.434-37.009L155.847,51.223z"/>
	</g>
	<g>
		<polygon fill="#EF5F26" points="156.031,50.378 226.95,169.71 219.693,184.427 149.258,62.199 		"/>
	</g>
	<g>
		<g>
			<path fill="#EF5F26" d="M107.55,69.834c0.098-0.06,0.197-0.108,0.296-0.161l2.969-4.994l-6.148-12.56l-72.386,119.12
				l7.597,12.762l61.326-103.154c-0.093-2.273,0.981-4.604,3.226-5.426l0.494-0.832C104.969,72.692,106.004,70.78,107.55,69.834z"/>
		</g>
		<g>
			<path fill="#EF5F26" d="M104.667,52.121l-6.969,11.497l7.088,11.693c0.051-0.015,0.109-0.021,0.162-0.034
				c-0.226-2.108,0.87-4.382,2.603-5.442c2.606-1.594,5.553-0.486,7.174,1.964c0.071,0.107,0.939,1.319,0.272,0.434
				c0.309,0.411,0.618,0.822,0.923,1.234c0.684,0.922,1.419,1.845,1.998,2.847c0.886,1.535,1.555,3.192,1.835,4.939
				c3.988,1.161,6.468,4.637,9.094,7.774c0.822,0.982,1.308,2.166,1.443,3.369c0.731,0.444,1.456,0.902,2.167,1.377L104.667,52.121z
				"/>
		</g>
	</g>
	<g display="none">
		<rect x="92.451" y="128.081" display="inline" fill="#EF5F26" width="14.324" height="18.891"/>
		<polyline display="inline" fill="#EF5F26" points="119.164,128.081 122.172,128.081 122.172,146.972 107.848,146.972 
			107.848,128.081 118.586,128.081 		"/>
		<rect x="92.299" y="149.641" display="inline" fill="#EF5F26" width="14.325" height="18.891"/>
		<rect x="108.275" y="149.641" display="inline" fill="#EF5F26" width="14.325" height="18.891"/>
		<rect x="143.715" y="128.128" display="inline" fill="#00AFEE" width="14.325" height="18.892"/>
		<rect x="159.691" y="128.128" display="inline" fill="#00AFEE" width="14.325" height="18.892"/>
		<rect x="143.564" y="149.689" display="inline" fill="#00AFEE" width="14.324" height="18.891"/>
		<rect x="159.539" y="149.689" display="inline" fill="#00AFEE" width="14.325" height="18.891"/>
	</g>
</g>
<g id="Layer_1_copy_2" display="none">
	<path display="inline" fill="#EF5F26" d="M139.578,114.976c1.825,1.307,3.135,2.566,4.234,4.079l29.541-46.682l-6.767-10.692
		l-32.41,49.531C135.861,112.074,138.034,113.869,139.578,114.976z"/>
	<polygon display="inline" fill="#EF5F26" points="166.765,60.894 235.622,171.881 228.577,185.569 160.188,71.888 	"/>
	<g display="inline">
		<polygon fill="#00AEFF" points="122.863,74.197 53.988,185.173 46.612,173.305 116.894,62.515 		"/>
		<path fill="#00AEFF" d="M145.391,117.092c2.187-3.469,3.42-5.086,4.353-7.412l-32.85-47.166l-6.767,10.693l31.21,49.319
			C142.69,120.775,144.091,119.154,145.391,117.092z"/>
	</g>
	<rect x="97.694" y="130.668" display="inline" fill="#EF5F26" width="11.28" height="14.876"/>
	<polyline display="inline" fill="#EF5F26" points="123.528,130.668 125.897,130.668 125.897,145.544 114.617,145.544 
		114.617,130.668 123.073,130.668 	"/>
	<rect x="97.575" y="150.419" display="inline" fill="#EF5F26" width="11.28" height="14.876"/>
	<rect x="114.702" y="150.419" display="inline" fill="#EF5F26" width="11.28" height="14.876"/>
	<rect x="156.836" y="130.706" display="inline" fill="#00AEFF" width="11.28" height="14.875"/>
	<rect x="173.964" y="130.706" display="inline" fill="#00AEFF" width="11.28" height="14.875"/>
	<rect x="156.718" y="150.457" display="inline" fill="#00AEFF" width="11.28" height="14.876"/>
	<rect x="173.844" y="150.457" display="inline" fill="#00AEFF" width="11.281" height="14.876"/>
</g>
<g id="Layer_1_copy_3">
	<g>
		<path fill="#EF5F26" d="M136.407,108.29c1.914,1.431,3.287,2.809,4.44,4.465l30.978-51.103l-7.096-11.705l-33.986,54.222
			C132.51,105.114,134.788,107.079,136.407,108.29z"/>
	</g>
	<g>
		<polygon fill="#EF5F26" points="164.916,49.086 237.122,170.584 229.734,185.569 158.02,61.122 		"/>
	</g>
	<g>
		<g>
			<polygon fill="#EF5F26" points="118.88,63.649 46.655,185.136 38.92,172.143 112.62,50.861 			"/>
		</g>
		<g>
			<path fill="#EF5F26" d="M142.502,110.606c2.293-3.797,3.586-5.568,4.564-8.113L112.62,50.861l-7.096,11.706l32.729,53.989
				C139.67,114.639,141.14,112.864,142.502,110.606z"/>
		</g>
	</g>
	<g>
		<rect x="90.389" y="125.469" fill="#CCCCCC" width="11.829" height="16.285"/>
	</g>
	<g>
		<polyline fill="#CCCCCC" points="117.48,125.469 119.964,125.469 119.964,141.753 108.135,141.753 108.135,125.469 
			117.002,125.469 		"/>
	</g>
	<g>
		<rect x="90.264" y="147.09" fill="#CCCCCC" width="11.829" height="16.285"/>
	</g>
	<g>
		<rect x="108.224" y="147.09" fill="#CCCCCC" width="11.829" height="16.285"/>
	</g>
	<g>
		<rect x="147.165" y="125.51" fill="#CCCCCC" width="11.829" height="16.284"/>
	</g>
	<g>
		<rect x="165.125" y="125.51" fill="#CCCCCC" width="11.829" height="16.284"/>
	</g>
	<g>
		<rect x="147.04" y="147.131" fill="#CCCCCC" width="11.828" height="16.285"/>
	</g>
	<g>
		<rect x="165" y="147.131" fill="#CCCCCC" width="11.829" height="16.285"/>
	</g>
</g>
<g id="Layer_3">
	<g>
		<path fill="#EF5F26" d="M325.433,155.539h-44.88l-10.71,27.03h-21.76L302.992,50.65l54.739,131.918h-21.59L325.433,155.539z
			 M318.292,137.859l-15.3-38.419l-15.3,38.419H318.292z"/>
		<path fill="#EF5F26" d="M453.44,145.169c0,6.29-1.36,11.9-4.08,17c-2.72,4.76-6.63,8.84-11.56,12.07
			c-8.67,5.44-20.4,8.33-34.68,8.33h-11.22h-16.66V56.43h19.72h8.16c13.939,0,24.14,2.55,31.279,7.82c3.91,2.89,6.8,6.63,8.67,10.88
			c1.7,3.91,2.55,8.33,2.55,13.26c0,6.8-2.21,15.13-9.859,23.12c2.04,1.36,3.91,2.89,5.78,4.59c3.739,3.74,6.63,7.82,8.67,12.41
			C452.421,133.609,453.44,139.219,453.44,145.169z M394.961,74.11v38.25c3.91-0.85,8.5-2.21,12.92-4.08
			c6.29-2.55,11.22-5.44,14.62-8.84c3.569-3.4,5.27-6.97,5.27-11.05c0-6.12-2.21-8.5-4.08-9.86c-4.76-3.57-13.939-4.42-20.569-4.42
			H394.961z M435.761,145.169c0-6.63-2.21-11.9-6.63-16.15c-2.55-2.55-5.78-4.59-9.69-6.29c-1.699,0.68-3.399,1.53-5.27,2.21
			c-6.97,2.89-13.939,4.59-19.21,5.78v34h8.16c10.71,0,19.38-1.87,24.989-5.44C433.381,155.879,435.761,151.459,435.761,145.169z"/>
		<path fill="#EF5F26" d="M494.921,107.77h46.069v17.85h-46.069v39.1h55.93v17.85h-56.1h-19.55V56.43h19.55h56.1v17.68h-55.93
			V107.77z"/>
		<path fill="#EF5F26" d="M646.558,182.569h-52.869h-19.55V56.43h19.72v108.289h52.699V182.569z"/>
	</g>
	<g>
		<path fill="#00AEFF" d="M54.829,244.996H35.525l-4.606,10.335h-9.359l23.618-50.442l23.545,50.442h-9.287L54.829,244.996z
			 M51.758,238.236l-6.581-14.69l-6.581,14.69H51.758z"/>
		<path fill="#00AEFF" d="M116.253,231.216c0,6.825-2.267,12.675-6.581,16.9c-2.34,2.34-5.265,4.16-8.701,5.33
			c-3.51,1.235-7.458,1.885-11.845,1.885H79.108h-2.852V207.1h8.481h4.388c4.387,0,8.335,0.585,11.845,1.885
			c3.437,1.17,6.361,2.99,8.701,5.33C113.986,218.54,116.253,224.39,116.253,231.216z M107.771,231.216
			c0-4.94-1.536-9.036-4.387-11.831c-3.217-3.185-7.97-4.745-14.258-4.745h-4.388v33.151h4.388c6.288,0,11.041-1.625,14.258-4.746
			C106.236,240.251,107.771,236.091,107.771,231.216z"/>
		<path fill="#00AEFF" d="M168.099,255.332v-25.611l-16.964,22.491l-17.037-22.491v25.611h-8.481V204.89l25.519,33.801
			l25.519-33.801v50.442H168.099z"/>
		<path fill="#00AEFF" d="M187.992,255.332V207.1h8.482v48.232H187.992z"/>
		<path fill="#00AEFF" d="M216.218,224.325v31.006h-8.482v-50.507l34.074,33.216V207.1h8.555v50.442L216.218,224.325z"/>
		<path fill="#00AEFF" d="M261.702,255.332V207.1h8.482v48.232H261.702z"/>
		<path fill="#00AEFF" d="M309.889,245.646c-1.536,4.68-6.288,8.386-12.211,9.426c-1.097,0.195-2.194,0.26-3.291,0.26
			c-2.193,0-4.387-0.325-6.435-1.04c-3.437-1.235-6.435-3.25-8.994-6.175l6.727-4.68c1.536,1.82,3.363,3.12,5.338,3.77
			c1.608,0.585,3.363,0.715,4.972,0.39c2.778-0.455,5.045-2.08,5.703-4.03c0.731-2.21-0.951-4.16-2.486-5.46
			c-2.413-2.015-6.361-5.46-6.654-5.72l-6.654-5.59c-2.047-1.755-3.437-3.705-4.167-5.785c-0.731-2.015-0.805-4.16-0.146-6.11
			c0.658-2.08,2.047-3.9,4.021-5.395c1.828-1.365,4.095-2.34,6.508-2.73c2.632-0.52,5.411-0.325,8.043,0.52
			c2.779,0.975,5.265,2.6,7.385,4.875l-6.654,4.745c-2.778-2.99-5.63-2.99-7.166-2.73c-1.901,0.325-3.51,1.43-3.948,2.795
			c-0.292,0.91-0.219,2.405,2.047,4.355l9.067,7.735c1.316,1.17,2.925,2.535,4.095,3.51c2.34,1.885,3.948,4.03,4.753,6.305
			C310.547,241.096,310.621,243.436,309.889,245.646z"/>
		<path fill="#00AEFF" d="M352.889,213.86h-14.917v41.472h-8.555V213.86H314.5v-6.76h38.389V213.86z"/>
		<path fill="#00AEFF" d="M398.665,255.332h-9.578l-13.674-16.315h-6.215v16.315h-8.482V207.1h7.166h8.921
			c7.165,0,11.333,2.6,13.527,4.81c2.852,2.795,4.387,6.695,4.387,11.181c0,4.42-1.535,8.32-4.387,11.115
			c-1.316,1.3-3.364,2.795-6.289,3.705L398.665,255.332z M376.803,232.256c3.51,0,6.142-0.91,7.823-2.6
			c2.048-1.95,2.413-4.68,2.413-6.565c0-1.95-0.365-4.68-2.413-6.63c-1.682-1.69-4.313-2.535-7.823-2.535h-7.604v18.331H376.803z"/>
		<path fill="#00AEFF" d="M435.887,244.996h-19.304l-4.606,10.335h-9.359l23.618-50.442l23.544,50.442h-9.286L435.887,244.996z
			 M432.815,238.236l-6.58-14.69l-6.581,14.69H432.815z"/>
		<path fill="#00AEFF" d="M497.312,231.216c0,6.825-2.267,12.675-6.581,16.9c-2.34,2.34-5.265,4.16-8.701,5.33
			c-3.51,1.235-7.458,1.885-11.846,1.885h-10.018h-2.852V207.1h8.482h4.387c4.388,0,8.336,0.585,11.846,1.885
			c3.437,1.17,6.361,2.99,8.701,5.33C495.045,218.54,497.312,224.39,497.312,231.216z M488.829,231.216
			c0-4.94-1.535-9.036-4.387-11.831c-3.218-3.185-7.971-4.745-14.259-4.745h-4.387v33.151h4.387c6.288,0,11.041-1.625,14.259-4.746
			C487.294,240.251,488.829,236.091,488.829,231.216z"/>
		<path fill="#00AEFF" d="M521.225,253.446c-3.29-1.235-6.143-2.99-8.628-5.2c-2.486-2.21-4.461-4.745-5.85-7.67
			c-1.39-2.925-2.121-6.11-2.121-9.36c0-3.25,0.731-6.436,2.121-9.425c1.389-2.86,3.363-5.396,5.85-7.67
			c2.485-2.21,5.338-3.9,8.628-5.135c3.29-1.235,6.873-1.885,10.529-1.885s7.239,0.65,10.603,1.885
			c3.217,1.235,6.068,2.925,8.628,5.135c2.486,2.275,4.388,4.81,5.776,7.67c1.39,2.99,2.121,6.175,2.121,9.425
			c0,3.25-0.731,6.435-2.121,9.36c-1.389,2.925-3.29,5.46-5.776,7.67c-2.56,2.21-5.411,3.965-8.628,5.2
			c-3.363,1.235-6.946,1.885-10.603,1.885S524.515,254.682,521.225,253.446z M518.592,219.515c-3.51,3.12-5.483,7.28-5.483,11.701
			c0,4.42,1.974,8.58,5.483,11.7s8.189,4.875,13.162,4.875c4.972,0,9.651-1.755,13.161-4.875s5.484-7.28,5.484-11.7
			c0-4.42-1.975-8.581-5.484-11.701s-8.189-4.875-13.161-4.875C526.781,214.64,522.102,216.395,518.592,219.515z"/>
		<path fill="#00AEFF" d="M606.414,255.332h-9.578l-13.674-16.315h-6.215v16.315h-8.482V207.1h7.166h8.921
			c7.166,0,11.333,2.6,13.527,4.81c2.852,2.795,4.387,6.695,4.387,11.181c0,4.42-1.535,8.32-4.387,11.115
			c-1.316,1.3-3.364,2.795-6.289,3.705L606.414,255.332z M584.552,232.256c3.51,0,6.142-0.91,7.823-2.6
			c2.048-1.95,2.413-4.68,2.413-6.565c0-1.95-0.365-4.68-2.413-6.63c-1.682-1.69-4.313-2.535-7.823-2.535h-7.604v18.331H584.552z"/>
		<path fill="#00AEFF" d="M643.636,244.996h-19.304l-4.606,10.335h-9.359l23.617-50.442l23.545,50.442h-9.286L643.636,244.996z
			 M640.564,238.236l-6.581-14.69l-6.58,14.69H640.564z"/>
	</g>
	<g>
	</g>
	<g>
	</g>
	<g>
	</g>
	<g>
	</g>
</g>
</svg>
